#!OML:ASF Y:\EmotionMaleHayes\Project 1\Capture day 1\Session 1\Male1.ASF
:FULLY-SPECIFIED
:DEGREES
1389
root 47.0567 17.1396 -1.86868 364.64 198.655 352.043
lowerback 2.70501 -0.311977 4.15272
upperback 3.53376 -0.80015 4.38834
thorax 2.14234 -0.514994 2.1937
lowerneck -27.6025 4.69979 7.0363
upperneck 26.7464 6.55822 -9.98709
head 14.4337 1.91262 -3.98703
rclavicle 1.74931e-014 -1.59028e-014
rhumerus 48.8748 10.7612 -31.4584
rradius 39.4382
rwrist -5.55581
rhand -6.07006 -32.8767
rfingers 7.12502
rthumb 19.765 -61.8918
lclavicle 1.74931e-014 -1.59028e-014
lhumerus 36.6188 -12.3192 26.6762
lradius 41.1737
lwrist 5.50644
lhand -16.1258 -26.1645
lfingers 7.12502
lthumb 10.0788 3.57417
rfemur 17.5981 -6.22271 10.432
rtibia 2.23347
rfoot -20.0608 -12.9313
rtoes -0.758763
lfemur 2.56789 0.0911741 -11.6762
ltibia 30.5699
lfoot -10.8813 -1.58988
ltoes -10.1889
1390
root 47.049 17.1352 -1.94582 364.729 198.897 352.251
lowerback 2.62995 -0.275273 4.44392
upperback 3.60638 -0.774416 4.46817
thorax 2.25968 -0.500775 2.11276
lowerneck -27.6582 4.76784 7.07918
upperneck 26.7407 6.68533 -10.1384
head 14.4675 1.94714 -4.03192
rclavicle 4.53229e-014 -3.18055e-015
rhumerus 49.0049 10.8319 -31.3837
rradius 39.5008
rwrist -5.51756
rhand -6.16154 -32.8613
rfingers 7.12502
rthumb 19.6771 -61.8854
lclavicle 4.53229e-014 -3.18055e-015
lhumerus 36.5289 -12.3023 26.7445
lradius 41.2669
lwrist 5.47258
lhand -15.8782 -26.0492
lfingers 7.12502
lthumb 10.3176 3.67768
rfemur 17.7674 -6.17259 10.8243
rtibia 2.25708
rfoot -20.2493 -13.0075
rtoes -0.735961
lfemur 1.29151 1.42745 -11.5923
ltibia 31.1963
lfoot -12.0222 -0.590645
ltoes -18.6093
1391
root 47.0453 17.1324 -2.01707 364.76 199.152 352.328
lowerback 2.72117 -0.24112 4.64542
upperback 3.72757 -0.735779 4.4339
thorax 2.33275 -0.478093 1.96539
lowerneck -27.7003 4.80979 7.23154
upperneck 26.6208 6.71995 -10.274
head 14.4411 1.9629 -4.10202
rclavicle -3.29983e-014 -1.90833e-014
rhumerus 49.0937 10.699 -31.6296
rradius 39.4672
rwrist -5.32208
rhand -6.039 -32.7825
rfingers 7.12502
rthumb 19.7949 -61.7945
lclavicle -3.29983e-014 -1.90833e-014
lhumerus 36.6512 -12.3613 26.4872
lradius 41.3055
lwrist 5.58681
lhand -15.9474 -26.2126
lfingers 7.12502
lthumb 10.2509 3.5176
rfemur 18.0426 -6.39147 10.9229
rtibia 2.28913
rfoot -20.3334 -12.7514
rtoes 0.113726
lfemur 0.254186 1.91009 -11.9039
ltibia 31.1188
lfoot -12.8248 0.512467
ltoes -20.2742
1392
root 47.0384 17.1212 -2.08713 364.935 199.35 352.496
lowerback 2.69218 -0.183203 4.89971
upperback 3.75282 -0.665984 4.44963
thorax 2.37481 -0.438687 1.83929
lowerneck -27.6582 4.81836 7.24774
upperneck 26.5168 6.73396 -10.3019
head 14.3908 1.97165 -4.10819
rclavicle -3.26007e-014 -4.45278e-014
rhumerus 49.1522 10.6372 -31.753
rradius 39.4535
rwrist -5.23915
rhand -5.91916 -32.7218
rfingers 7.12502
rthumb 19.9101 -61.7219
lclavicle -3.26007e-014 -4.45278e-014
lhumerus 36.7524 -12.4799 26.2669
lradius 41.2977
lwrist 5.7894
lhand -15.9169 -26.1673
lfingers 7.12502
lthumb 10.2803 3.5615
rfemur 18.1262 -6.24715 11.2904
rtibia 2.23343
rfoot -20.6071 -12.6672
rtoes 2.54403
lfemur -1.09807 2.62589 -12.0676
ltibia 31.2995
lfoot -13.4242 1.25125
ltoes -19.8404
1393
root 47.0398 17.1194 -2.15541 364.899 199.63 352.642
lowerback 3.08705 -0.19559 4.87913
upperback 3.73042 -0.670008 4.62556
thorax 2.13328 -0.45509 2.03632
lowerneck -27.5147 4.87403 7.13707
upperneck 26.4523 6.88564 -10.3684
head 14.3507 2.01707 -4.0829
rclavicle -2.38542e-014 -7.31528e-014
rhumerus 49.3058 10.9738 -31.3861
rradius 39.5909
rwrist -5.58568
rhand -6.0192 -32.8169
rfingers 7.12502
rthumb 19.8139 -61.827
lclavicle -2.38542e-014 -7.31528e-014
lhumerus 36.5294 -12.5143 26.5105
lradius 41.242
lwrist 5.73395
lhand -15.7448 -25.8934
lfingers 7.12502
lthumb 10.4464 3.82707
rfemur 18.4243 -5.92737 11.8078
rtibia 2.1695
rfoot -20.9742 -12.861
rtoes 4.52433
lfemur -2.29074 3.36342 -12.1992
ltibia 31.5474
lfoot -13.8728 1.46247
ltoes -18.4324
1394
root 47.0246 17.1202 -2.23241 364.933 199.74 352.788
lowerback 3.27466 -0.193803 5.03927
upperback 3.73876 -0.666292 4.7235
thorax 2.03828 -0.458304 2.05022
lowerneck -27.4186 4.95772 7.01633
upperneck 26.3967 7.05842 -10.357
head 14.3216 2.08223 -4.01878
rclavicle 2.38542e-014 -3.18055e-015
rhumerus 49.5125 11.4136 -31.1294
rradius 39.7059
rwrist -5.77153
rhand -6.03314 -32.8268
rfingers 7.12502
rthumb 19.8005 -61.8382
lclavicle 2.38542e-014 -3.18055e-015
lhumerus 36.2204 -12.426 26.8078
lradius 41.1768
lwrist 5.49443
lhand -15.6578 -26.0119
lfingers 7.12502
lthumb 10.5302 3.70432
rfemur 18.6225 -5.68508 12.0984
rtibia 2.18015
rfoot -21.1398 -12.9001
rtoes 5.51305
lfemur -3.3476 3.86416 -12.5541
ltibia 31.4224
lfoot -14.3243 2.06139
ltoes -18.5408
1395
root 47.0059 17.1178 -2.31128 364.968 199.8 352.896
lowerback 3.39494 -0.160243 5.30542
upperback 3.81212 -0.619164 4.68652
thorax 2.04631 -0.430551 1.86402
lowerneck -27.4369 5.022 6.94029
upperneck 26.3732 7.14239 -10.2089
head 14.3128 2.13488 -3.92402
rclavicle 6.12257e-014 0
rhumerus 49.616 11.671 -31.0161
rradius 39.8539
rwrist -5.86957
rhand -6.13681 -32.8839
rfingers 7.12502
rthumb 19.7008 -61.9056
lclavicle 6.12257e-014 0
lhumerus 36.1514 -12.3902 26.6949
lradius 41.1605
lwrist 5.56548
lhand -15.6381 -26.3194
lfingers 7.12502
lthumb 10.5492 3.39583
rfemur 18.8985 -5.5987 12.2444
rtibia 2.11618
rfoot -21.2578 -12.733
rtoes 6.63336
lfemur -4.3195 4.29387 -13.0393
ltibia 31.143
lfoot -14.7306 2.5389
ltoes -18.3942
1396
root 46.9882 17.1149 -2.39005 365.079 199.809 352.854
lowerback 3.49415 -0.0698749 5.33365
upperback 3.88543 -0.493844 4.62485
thorax 2.06683 -0.365589 1.78315
lowerneck -27.4279 5.08708 7.094
upperneck 26.334 7.20316 -10.3089
head 14.3131 2.16532 -3.97758
rclavicle 3.18055e-014 -3.18055e-015
rhumerus 49.626 11.7506 -30.9957
rradius 39.9508
rwrist -5.90677
rhand -6.08668 -32.8634
rfingers 7.12502
rthumb 19.749 -61.8801
lclavicle 3.18055e-014 -3.18055e-015
lhumerus 36.2318 -12.4789 26.5129
lradius 41.1374
lwrist 5.78825
lhand -15.6071 -26.2509
lfingers 7.12502
lthumb 10.5792 3.46283
rfemur 19.0807 -5.61373 12.1948
rtibia 2.14448
rfoot -21.1083 -12.6198
rtoes 6.10094
lfemur -5.44518 4.86718 -13.7128
ltibia 31.0802
lfoot -15.3138 2.4795
ltoes -16.1278
1397
root 46.9758 17.1147 -2.46763 365.225 199.812 352.679
lowerback 3.66652 0.016227 5.07353
upperback 3.94491 -0.373594 4.62327
thorax 2.0322 -0.312178 1.92527
lowerneck -27.4375 5.18575 7.04863
upperneck 26.3209 7.34102 -10.2124
head 14.3175 2.23604 -3.89907
rclavicle 8.50798e-014 1.33583e-013
rhumerus 49.6819 11.8101 -31.0204
rradius 39.9856
rwrist -5.68908
rhand -5.78418 -32.7412
rfingers 7.12502
rthumb 20.0398 -61.7277
lclavicle 8.50798e-014 1.33583e-013
lhumerus 36.0537 -12.5553 26.4598
lradius 41.3115
lwrist 5.89671
lhand -15.5527 -25.9174
lfingers 7.12502
lthumb 10.6316 3.79364
rfemur 19.2252 -5.62157 12.0263
rtibia 2.22654
rfoot -20.5733 -12.7766
rtoes 3.16014
lfemur -6.68138 5.50987 -14.5716
ltibia 31.1045
lfoot -16.1332 2.17243
ltoes -12.6477
1398
root 46.9582 17.1124 -2.54584 365.352 199.841 352.599
lowerback 3.82302 0.0404595 4.96858
upperback 4.01347 -0.3422 4.6441
thorax 2.01601 -0.30208 2.00561
lowerneck -27.6411 5.34044 6.68089
upperneck 26.5254 7.57483 -9.68908
head 14.4262 2.36777 -3.574
rclavicle -2.78299e-014 3.18055e-015
rhumerus 49.8626 12.0097 -30.8598
rradius 40.122
rwrist -5.65809
rhand -5.74349 -32.852
rfingers 7.12502
rthumb 20.0789 -61.8345
lclavicle -2.78299e-014 3.18055e-015
lhumerus 35.7264 -12.5118 26.4214
lradius 41.4471
lwrist 5.89522
lhand -15.4782 -25.7584
lfingers 7.12502
lthumb 10.7036 3.94889
rfemur 19.4313 -5.97114 11.7175
rtibia 2.21956
rfoot -19.9243 -12.6674
rtoes 0.20688
lfemur -7.85167 5.70254 -15.4572
ltibia 30.9298
lfoot -16.1656 2.3243
ltoes -13.7558
1399
root 46.9385 17.1068 -2.62378 365.484 199.851 352.713
lowerback 3.92281 0.150112 5.17737
upperback 4.05234 -0.180932 4.53505
thorax 2.00097 -0.213365 1.77349
lowerneck -27.7568 5.45588 6.79967
upperneck 26.6252 7.61709 -9.42346
head 14.4864 2.43947 -3.47523
rclavicle -1.27222e-014 -3.18055e-015
rhumerus 49.7431 11.9824 -31.1062
rradius 40.0878
rwrist -5.45529
rhand -5.75985 -32.852
rfingers 7.12502
rthumb 20.0632 -61.8362
lclavicle -1.27222e-014 -3.18055e-015
lhumerus 35.8298 -12.6215 26.1498
lradius 41.4772
lwrist 5.87327
lhand -15.435 -25.7933
lfingers 7.12502
lthumb 10.7452 3.91193
rfemur 19.5742 -6.03096 11.8674
rtibia 2.16285
rfoot -19.7748 -12.6361
rtoes 0.109225
lfemur -9.05886 5.90259 -16.2424
ltibia 30.7987
lfoot -16.2222 3.2371
ltoes -17.237
1400
root 46.9156 17.1044 -2.69983 365.563 199.919 352.854
lowerback 4.06724 0.441127 5.72129
upperback 4.06448 0.263925 4.12525
thorax 1.94287 0.038676 1.03758
lowerneck -27.6995 5.35344 7.68801
upperneck 26.675 7.15945 -9.66114
head 14.4978 2.31266 -3.82418
rclavicle -2.46493e-014 2.22639e-014
rhumerus 48.8477 11.5771 -31.6713
rradius 40.0019
rwrist -5.13982
rhand -5.78878 -32.722
rfingers 7.12502
rthumb 20.0354 -61.709
lclavicle -2.46493e-014 2.22639e-014
lhumerus 36.7442 -13.1613 25.4964
lradius 41.5477
lwrist 5.98298
lhand -15.5978 -25.9105
lfingers 7.12502
lthumb 10.5882 3.80276
rfemur 19.7431 -5.70154 12.2368
rtibia 2.1428
rfoot -20.0087 -12.7836
rtoes 1.27626
lfemur -10.3339 6.38339 -16.9371
ltibia 30.6871
lfoot -16.3375 3.28338
ltoes -17.0804
1401
root 46.8874 17.1069 -2.77851 365.593 199.976 352.831
lowerback 4.31764 0.449022 5.85113
upperback 4.20639 0.275882 4.09971
thorax 1.95329 0.0437309 0.938803
lowerneck -27.8038 5.37028 7.63794
upperneck 26.587 7.25401 -9.83799
head 14.5001 2.31989 -3.86669
rclavicle 4.77083e-014 1.59028e-014
rhumerus 49.0785 11.7884 -31.1595
rradius 40.208
rwrist -5.49174
rhand -5.85107 -32.7448
rfingers 7.12502
rthumb 19.9755 -61.7381
lclavicle 4.77083e-014 1.59028e-014
lhumerus 36.5851 -12.9658 25.5798
lradius 41.5612
lwrist 6.01701
lhand -15.8177 -26.0557
lfingers 7.12502
lthumb 10.376 3.66831
rfemur 20.0288 -5.76434 12.1089
rtibia 2.14442
rfoot -19.9835 -12.6823
rtoes 0.518178
lfemur -11.4285 6.53761 -17.8982
ltibia 30.3681
lfoot -16.5737 3.08921
ltoes -15.375
